<svg width="90" height="90" viewBox="0 0 90 90" fill="none" xmlns="http://www.w3.org/2000/svg">
<circle cx="45" cy="45" r="45" fill="url(#paint0_linear_47_686)"/>
<path d="M46.3855 62.3703H33.5814C27.1793 62.3703 25.052 58.1158 25.052 53.841V36.7823C25.052 30.3802 27.1793 28.2529 33.5814 28.2529H46.3855C52.7876 28.2529 54.9149 30.3802 54.9149 36.7823V53.841C54.9149 60.2431 52.7673 62.3703 46.3855 62.3703Z" stroke="white" stroke-width="3" stroke-linecap="round" stroke-linejoin="round"/>
<path d="M60.547 55.6443L54.9148 51.6937V38.9098L60.547 34.9591C63.3023 33.0344 65.5714 34.2095 65.5714 37.5929V53.0308C65.5714 56.4142 63.3023 57.5892 60.547 55.6443Z" stroke="white" stroke-width="3" stroke-linecap="round" stroke-linejoin="round"/>
<path d="M44.2987 43.2859C45.9771 43.2859 47.3377 41.9253 47.3377 40.247C47.3377 38.5686 45.9771 37.208 44.2987 37.208C42.6204 37.208 41.2598 38.5686 41.2598 40.247C41.2598 41.9253 42.6204 43.2859 44.2987 43.2859Z" stroke="white" stroke-width="2.5" stroke-linecap="round" stroke-linejoin="round"/>
<defs>
<linearGradient id="paint0_linear_47_686" x1="-16.9984" y1="-7.99588" x2="98.4626" y2="103.327" gradientUnits="userSpaceOnUse">
<stop stop-color="#F7941D"/>
<stop offset="0.5665" stop-color="#EE4163"/>
<stop offset="1" stop-color="#8A2BE2"/>
</linearGradient>
</defs>
</svg>
