<svg width="90" height="90" viewBox="0 0 90 90" fill="none" xmlns="http://www.w3.org/2000/svg">
<circle cx="45" cy="45" r="45" fill="url(#paint0_linear_47_740)"/>
<path d="M57.5486 48.4523C56.6977 49.2829 56.2114 50.4783 56.333 51.7546C56.5153 53.9427 58.5211 55.5432 60.7091 55.5432H64.5584V57.9541C64.5584 62.1479 61.1346 65.5718 56.9408 65.5718H36.4582C37.0862 65.045 37.6332 64.3967 38.0587 63.6674C38.8083 62.4518 39.2338 61.0133 39.2338 59.4939C39.2338 55.0165 35.6073 51.39 31.1299 51.39C29.2255 51.39 27.4629 52.0586 26.0649 53.1728V44.3193C26.0649 40.1256 29.4888 36.7017 33.6826 36.7017H56.9408C61.1346 36.7017 64.5584 40.1256 64.5584 44.3193V47.2367H60.466C59.3314 47.2367 58.2982 47.6824 57.5486 48.4523Z" stroke="white" stroke-width="3" stroke-linecap="round" stroke-linejoin="round"/>
<path d="M26.0649 46.1425V36.8839C26.0649 34.473 27.5439 32.3254 29.7927 31.4745L45.879 25.3966C48.3912 24.4444 51.0857 26.3083 51.0857 29.0029V36.7015" stroke="white" stroke-width="3" stroke-linecap="round" stroke-linejoin="round"/>
<path d="M66.7035 49.3032V53.4768C66.7035 54.5911 65.812 55.5027 64.6775 55.5433H60.7066C58.5186 55.5433 56.5128 53.9427 56.3305 51.7547C56.2089 50.4783 56.6952 49.283 57.5461 48.4524C58.2957 47.6825 59.3289 47.2368 60.4635 47.2368H64.6775C65.812 47.2773 66.7035 48.1889 66.7035 49.3032Z" stroke="white" stroke-width="3" stroke-linecap="round" stroke-linejoin="round"/>
<path d="M35.1819 45.3115H49.3637" stroke="white" stroke-width="3" stroke-linecap="round" stroke-linejoin="round"/>
<path d="M39.2337 59.4935C39.2337 61.013 38.8082 62.4515 38.0586 63.667C37.6331 64.3964 37.0861 65.0447 36.4581 65.5715C35.0399 66.8478 33.176 67.5974 31.1298 67.5974C28.1719 67.5974 25.5989 66.0172 24.2009 63.667C23.4513 62.4515 23.0259 61.013 23.0259 59.4935C23.0259 56.9408 24.2009 54.6515 26.0648 53.1725C27.4628 52.0582 29.2254 51.3896 31.1298 51.3896C35.6072 51.3896 39.2337 55.0161 39.2337 59.4935Z" stroke="white" stroke-width="3" stroke-miterlimit="10" stroke-linecap="round" stroke-linejoin="round"/>
<path d="M27.9722 59.4927L29.9779 61.4984L34.2932 57.5073" stroke="white" stroke-width="2" stroke-linecap="round" stroke-linejoin="round"/>
<defs>
<linearGradient id="paint0_linear_47_740" x1="-16.9984" y1="-7.99588" x2="98.4626" y2="103.327" gradientUnits="userSpaceOnUse">
<stop stop-color="#F7941D"/>
<stop offset="0.5665" stop-color="#EE4163"/>
<stop offset="1" stop-color="#8A2BE2"/>
</linearGradient>
</defs>
</svg>
