<svg width="65" height="65" viewBox="0 0 65 65" fill="none" xmlns="http://www.w3.org/2000/svg">
<circle cx="32.5" cy="32.5" r="32.5" fill="url(#paint0_linear_51_793)"/>
<path d="M39.4699 37.83L39.8599 40.99C39.9599 41.82 39.0699 42.4 38.3599 41.97L34.8999 39.91C34.6599 39.77 34.5999 39.47 34.7299 39.23C35.2299 38.31 35.4999 37.27 35.4999 36.23C35.4999 32.57 32.3599 29.59 28.4999 29.59C27.7099 29.59 26.9399 29.71 26.2199 29.95C25.8499 30.07 25.4899 29.73 25.5799 29.35C26.4899 25.71 29.9899 23 34.1699 23C39.0499 23 42.9999 26.69 42.9999 31.24C42.9999 33.94 41.6099 36.33 39.4699 37.83Z" fill="white"/>
<path d="M34 36.2298C34 37.4198 33.56 38.5198 32.82 39.3898C31.83 40.5898 30.26 41.3598 28.5 41.3598L25.89 42.9098C25.45 43.1798 24.89 42.8098 24.95 42.2998L25.2 40.3298C23.86 39.3998 23 37.9098 23 36.2298C23 34.4698 23.94 32.9198 25.38 31.9998C26.27 31.4198 27.34 31.0898 28.5 31.0898C31.54 31.0898 34 33.3898 34 36.2298Z" fill="white"/>
<defs>
<linearGradient id="paint0_linear_51_793" x1="-12.2766" y1="-5.7748" x2="71.1119" y2="74.6247" gradientUnits="userSpaceOnUse">
<stop stop-color="#F7941D"/>
<stop offset="0.5665" stop-color="#EE4163"/>
<stop offset="1" stop-color="#8A2BE2"/>
</linearGradient>
</defs>
</svg>
