<svg width="90" height="90" viewBox="0 0 90 90" fill="none" xmlns="http://www.w3.org/2000/svg">
<circle cx="45" cy="45" r="45" fill="url(#paint0_linear_47_678)"/>
<path d="M45.3117 51.3897C48.6684 51.3897 51.3896 48.6686 51.3896 45.3118C51.3896 41.9551 48.6684 39.2339 45.3117 39.2339C41.9549 39.2339 39.2338 41.9551 39.2338 45.3118C39.2338 48.6686 41.9549 51.3897 45.3117 51.3897Z" stroke="#201E28" stroke-width="3" stroke-miterlimit="10" stroke-linecap="round" stroke-linejoin="round"/>
<path d="M25.052 47.0945V43.5288C25.052 41.4218 26.7741 39.6795 28.9014 39.6795C32.5684 39.6795 34.0676 37.0862 32.2239 33.9055C31.1704 32.0821 31.7985 29.7117 33.6421 28.6582L37.1471 26.6525C38.7476 25.7003 40.8141 26.2675 41.7663 27.8681L41.9891 28.253C43.8125 31.4338 46.811 31.4338 48.6546 28.253L48.8775 27.8681C49.8297 26.2675 51.8962 25.7003 53.4967 26.6525L57.0016 28.6582C58.8452 29.7117 59.4733 32.0821 58.4198 33.9055C56.5762 37.0862 58.0754 39.6795 61.7424 39.6795C63.8494 39.6795 65.5917 41.4016 65.5917 43.5288V47.0945C65.5917 49.2016 63.8697 50.9439 61.7424 50.9439C58.0754 50.9439 56.5762 53.5371 58.4198 56.7179C59.4733 58.5616 58.8452 60.9117 57.0016 61.9652L53.4967 63.9709C51.8962 64.9231 49.8297 64.3558 48.8775 62.7553L48.6546 62.3704C46.8312 59.1896 43.8328 59.1896 41.9891 62.3704L41.7663 62.7553C40.8141 64.3558 38.7476 64.9231 37.1471 63.9709L33.6421 61.9652C31.7985 60.9117 31.1704 58.5413 32.2239 56.7179C34.0676 53.5371 32.5684 50.9439 28.9014 50.9439C26.7741 50.9439 25.052 49.2016 25.052 47.0945Z" stroke="#201E28" stroke-width="3" stroke-miterlimit="10" stroke-linecap="round" stroke-linejoin="round"/>
<defs>
<linearGradient id="paint0_linear_47_678" x1="45" y1="0" x2="45" y2="90" gradientUnits="userSpaceOnUse">
<stop stop-color="#DDE4FF"/>
<stop offset="1" stop-color="#FFF3E8"/>
</linearGradient>
</defs>
</svg>
