<svg width="147" height="120" viewBox="0 0 147 120" fill="none" xmlns="http://www.w3.org/2000/svg">
<path fill-rule="evenodd" clip-rule="evenodd" d="M65.7475 73.6826C66.3709 82.0709 71.0864 88.6775 77.5968 93.2577C84.8975 98.3905 94.4559 100.912 102.653 100.619C105.498 100.384 108.27 99.8611 111.004 99.0525C114.934 97.8863 118.743 96.2038 122.495 94.259C122.863 94.0984 123.026 93.6633 122.87 93.2982C122.706 92.9274 122.282 92.7631 121.908 92.9317C118.722 94.1156 115.525 95.0997 112.283 95.8057C109.061 96.5018 105.832 96.8724 102.556 96.7846C95.1599 96.9472 86.5816 94.5258 80.0343 89.8401C74.6558 85.9895 70.646 80.56 70.0466 73.6481C71.8624 73.5431 73.6601 73.3088 75.4137 72.8867C78.8051 72.0674 82.04 70.5633 84.9446 67.9704C86.9863 66.1492 89.349 63.0697 90.1648 60.0748C90.891 57.4064 90.492 54.8064 88.32 52.8052C83.9773 48.8164 79.0883 49.81 74.8725 53.2852C70.1198 57.2109 66.363 64.458 65.8081 69.421C64.034 69.3667 62.259 69.2223 60.5114 69.0736C53.2884 68.4383 46.4569 65.1165 41.1515 59.7885C36.234 54.8527 32.6186 48.2092 31.199 40.4018C29.9612 34.1298 30.9807 27.8032 32.7786 22.2117C34.0235 18.3241 35.7048 14.8281 37.3652 11.8912C38.8753 9.22051 40.2653 7.00603 41.7031 5.58326C41.768 5.5316 41.7871 5.43139 41.7326 5.36332C41.6781 5.29526 41.5799 5.28253 41.515 5.33419C39.6705 6.38859 37.4999 8.08366 35.4308 10.5483C33.1166 13.3077 31.0241 16.9432 29.4052 20.9994C26.9957 27.06 25.9172 34.1461 27.0725 41.1464C28.6403 49.8621 32.6757 57.268 38.1496 62.7786C44.17 68.8305 51.9354 72.5996 60.1385 73.3346C61.9694 73.4844 63.8552 73.6257 65.7475 73.6826ZM70.1036 69.3452C71.5512 69.2342 72.9841 69.0351 74.384 68.6951C77.1092 68.0336 79.7108 66.8283 82.0484 64.7393C83.3234 63.5986 84.7925 61.8167 85.6014 59.9415C86.208 58.5352 86.5288 57.0337 85.3684 55.975C82.8493 53.6519 80.036 54.5771 77.5879 56.5927C73.8253 59.6925 70.7519 65.2991 70.1036 69.3452Z" fill="url(#paint0_linear_6_176)"/>
<path fill-rule="evenodd" clip-rule="evenodd" d="M121.327 92.7985C120.3 93.7484 119.271 94.6846 118.244 95.6482C117.044 96.7704 115.837 97.9006 114.69 99.0772C111.745 102.086 109.025 105.207 106.248 108.308C105.959 108.568 105.928 109.017 106.189 109.311C106.451 109.604 106.897 109.633 107.187 109.373C110.052 107.363 112.956 105.486 115.837 103.424C117.059 102.549 118.266 101.662 119.432 100.705C122.036 98.5681 124.441 96.2117 126.812 93.8675C127.099 93.5802 127.517 93.0366 127.722 92.5188C127.949 91.9419 127.983 91.367 127.863 90.8643C127.745 90.389 127.477 89.7839 126.724 89.3367C126.388 89.1382 125.607 88.8619 124.477 88.7089C120.771 88.2216 111.577 88.1459 109.685 88.089L105.957 88.2235C105.744 88.2493 105.43 88.2349 105.124 88.3792C104.716 88.5599 104.248 88.7706 104.042 89.0316C103.886 89.2293 104.178 89.3929 104.02 89.3338C103.898 89.2899 104.031 89.5474 104.073 89.4646C104.22 89.1572 104.214 89.7279 104.343 89.6246C104.682 89.3642 104.31 89.9563 104.623 89.9707C104.741 89.9734 104.543 90.0873 104.664 90.1174C104.828 90.1686 104.486 90.2349 104.649 90.3489C104.746 90.4244 104.472 90.39 104.572 90.5066C104.643 90.6 104.343 90.4168 104.433 90.5767C104.516 90.7307 104.314 90.4838 104.314 90.4838C104.314 90.4838 104.334 90.6404 104.19 90.2595C104.263 90.2137 104.282 90.1135 104.227 90.0454C104.179 89.9695 104.081 89.9567 104.008 90.0026C103.235 89.3223 103.887 89.9587 103.516 89.8488C103.381 89.8071 103.52 89.9665 103.422 89.9675C102.904 89.9846 103.632 90.2202 103.391 90.4796C103.296 90.5845 103.546 90.5113 103.474 90.6474C103.349 90.882 103.741 90.523 103.773 90.8933C103.79 91.0853 103.917 90.7114 104.099 91.0449C104.225 91.2965 104.031 91.1456 104.489 91.3879C104.817 91.5669 105.564 91.4592 105.877 91.5501L109.477 91.9286C110.978 92.0386 117.147 92.3632 121.327 92.7985Z" fill="url(#paint1_linear_6_176)"/>
<defs>
<linearGradient id="paint0_linear_6_176" x1="110" y1="70" x2="26.6827" y2="21.5456" gradientUnits="userSpaceOnUse">
<stop stop-color="#DDE4FF"/>
<stop offset="1" stop-color="#FFF3E8" stop-opacity="0"/>
</linearGradient>
<linearGradient id="paint1_linear_6_176" x1="120.784" y1="84.6739" x2="103.307" y2="107.077" gradientUnits="userSpaceOnUse">
<stop stop-color="#DDE4FF"/>
<stop offset="1" stop-color="#FFF3E8"/>
</linearGradient>
</defs>
</svg>
