<svg width="90" height="90" viewBox="0 0 90 90" fill="none" xmlns="http://www.w3.org/2000/svg">
<circle cx="45" cy="45" r="45" fill="url(#paint0_linear_47_739)"/>
<path d="M27.0981 43.7314V52.8281C27.0981 61.9247 30.7449 65.5714 39.8415 65.5714H50.7615C59.8581 65.5714 63.5049 61.9247 63.5049 52.8281V43.7314" stroke="white" stroke-width="3" stroke-linecap="round" stroke-linejoin="round"/>
<path d="M45.3117 45.3115C49.0193 45.3115 51.7543 42.2928 51.3896 38.5853L50.0525 25.0518H40.5912L39.2338 38.5853C38.8691 42.2928 41.6042 45.3115 45.3117 45.3115Z" stroke="white" stroke-width="3" stroke-linecap="round" stroke-linejoin="round"/>
<path d="M58.0956 45.3115C62.1881 45.3115 65.1865 41.9889 64.7813 37.9167L64.214 32.3453C63.4847 27.0777 61.4587 25.0518 56.1507 25.0518H49.9714L51.3896 39.2538C51.734 42.5967 54.7527 45.3115 58.0956 45.3115Z" stroke="white" stroke-width="3" stroke-linecap="round" stroke-linejoin="round"/>
<path d="M32.4265 45.3115C35.7694 45.3115 38.7881 42.5967 39.1122 39.2538L39.5579 34.7764L40.5304 25.0518H34.3512C29.0431 25.0518 27.0171 27.0777 26.2878 32.3453L25.7408 37.9167C25.3356 41.9889 28.334 45.3115 32.4265 45.3115Z" stroke="white" stroke-width="3" stroke-linecap="round" stroke-linejoin="round"/>
<path d="M45.3118 55.4414C41.9284 55.4414 40.2468 57.123 40.2468 60.5063V65.5713H50.3767V60.5063C50.3767 57.123 48.6951 55.4414 45.3118 55.4414Z" stroke="white" stroke-width="3" stroke-linecap="round" stroke-linejoin="round"/>
<defs>
<linearGradient id="paint0_linear_47_739" x1="-16.9984" y1="-7.99588" x2="98.4626" y2="103.327" gradientUnits="userSpaceOnUse">
<stop stop-color="#F7941D"/>
<stop offset="0.5665" stop-color="#EE4163"/>
<stop offset="1" stop-color="#8A2BE2"/>
</linearGradient>
</defs>
</svg>
