<svg width="23" height="23" viewBox="0 0 23 23" fill="none" xmlns="http://www.w3.org/2000/svg">
<path fill-rule="evenodd" clip-rule="evenodd" d="M16.8791 7.43073C16.7538 7.10873 16.6043 6.87873 16.3628 6.63723C16.1213 6.39573 15.8913 6.24622 15.5693 6.12087C15.3261 6.02658 14.9609 5.91387 14.2882 5.8834C13.5602 5.85005 13.3423 5.84315 11.5 5.84315C9.6577 5.84315 9.4392 5.85005 8.71183 5.8834C8.03908 5.91387 7.67395 6.02658 7.43072 6.12087C7.10872 6.24565 6.87872 6.39573 6.63722 6.63723C6.39572 6.87873 6.24622 7.10873 6.12087 7.43073C6.02657 7.67395 5.91388 8.03907 5.8834 8.71182C5.85005 9.43977 5.84316 9.6577 5.84316 11.5C5.84316 13.3423 5.85005 13.5608 5.8834 14.2882C5.91388 14.9609 6.02657 15.3266 6.12087 15.5693C6.24622 15.8913 6.39572 16.1213 6.63722 16.3628C6.87872 16.6043 7.10815 16.7538 7.43072 16.8791C7.67395 16.974 8.03908 17.0861 8.71183 17.1166C9.4392 17.15 9.6577 17.1569 11.5 17.1569C13.3429 17.1569 13.5608 17.15 14.2882 17.1166C14.9609 17.0861 15.3261 16.974 15.5693 16.8791C15.8913 16.7538 16.1213 16.6043 16.3628 16.3628C16.6043 16.1213 16.7538 15.8919 16.8791 15.5693C16.9734 15.3261 17.0861 14.9609 17.1166 14.2882C17.1499 13.5608 17.1568 13.3423 17.1568 11.5C17.1568 9.6577 17.1499 9.4392 17.1166 8.71182C17.0861 8.03907 16.9734 7.67395 16.8791 7.43073ZM11.5 15.0431C9.54327 15.0431 7.95684 13.4567 7.95684 11.5C7.95684 9.54327 9.54327 7.95685 11.5 7.95685C13.4573 7.95685 15.0432 9.54327 15.0432 11.5C15.0432 13.4567 13.4573 15.0431 11.5 15.0431ZM15.1835 8.64455C14.7263 8.64455 14.3554 8.27367 14.3554 7.81655C14.3554 7.35942 14.7263 6.98855 15.1835 6.98855C15.6406 6.98855 16.0114 7.35942 16.0114 7.81655C16.0114 8.27367 15.6406 8.64455 15.1835 8.64455ZM13.8 11.5C13.8 12.7702 12.7702 13.8 11.5 13.8C10.2298 13.8 9.2 12.7702 9.2 11.5C9.2 10.2298 10.2298 9.2 11.5 9.2C12.7702 9.2 13.8 10.2298 13.8 11.5ZM11.5 0C5.14855 0 0 5.14855 0 11.5C0 17.8514 5.14855 23 11.5 23C17.8509 23 23 17.8514 23 11.5C23 5.14855 17.8509 0 11.5 0ZM18.3586 14.3445C18.3253 15.0788 18.2085 15.5808 18.0377 16.0195C17.8612 16.4732 17.6255 16.8584 17.242 17.2419C16.8584 17.6255 16.4732 17.8612 16.0201 18.0378C15.5808 18.2085 15.0794 18.3247 14.3451 18.3586C13.6091 18.392 13.3745 18.4 11.5 18.4C9.62607 18.4 9.39148 18.392 8.65548 18.3586C7.9212 18.3253 7.41922 18.2085 6.98049 18.0378C6.52682 17.8612 6.14214 17.6255 5.75862 17.2419C5.37509 16.8584 5.13878 16.4737 4.96283 16.0195C4.79205 15.5808 4.67532 15.0794 4.64197 14.3445C4.60805 13.6085 4.6 13.3739 4.6 11.4994C4.6 9.6255 4.60805 9.39032 4.64197 8.65432C4.67532 7.92005 4.79205 7.41807 4.96283 6.97935C5.13878 6.52567 5.37509 6.141 5.75862 5.75747C6.14214 5.37395 6.52682 5.13762 6.98049 4.96167C7.41922 4.7909 7.9212 4.67418 8.65548 4.64083C9.39148 4.60748 9.62607 4.59943 11.5 4.59943C13.3739 4.59943 13.6091 4.60748 14.3451 4.64083C15.0794 4.67418 15.5814 4.7909 16.0201 4.96167C16.4738 5.13762 16.8584 5.37395 17.242 5.75747C17.6255 6.141 17.8612 6.52567 18.0377 6.97935C18.2085 7.41807 18.3253 7.92005 18.3586 8.65432C18.392 9.39032 18.4 9.62493 18.4 11.4994C18.4 13.3739 18.392 13.6085 18.3586 14.3445Z" fill="url(#paint0_linear_51_809)"/>
<defs>
<linearGradient id="paint0_linear_51_809" x1="11.5" y1="0" x2="11.5" y2="23" gradientUnits="userSpaceOnUse">
<stop stop-color="#DDE4FF"/>
<stop offset="1" stop-color="#FFF3E8"/>
</linearGradient>
</defs>
</svg>
