<svg width="34" height="34" viewBox="0 0 34 34" fill="none" xmlns="http://www.w3.org/2000/svg">
<path opacity="0.4" d="M10.5967 25.9957L14.9883 29.3957C15.555 29.9624 16.83 30.2457 17.68 30.2457H23.0633C24.7633 30.2457 26.605 28.9707 27.03 27.2707L30.43 16.9291C31.1383 14.9457 29.8633 13.2457 27.7383 13.2457H22.0717C21.2217 13.2457 20.5133 12.5374 20.655 11.5457L21.3633 7.01241C21.6467 5.73741 20.7967 4.32075 19.5217 3.89575C18.3883 3.47075 16.9717 4.03741 16.405 4.88741L10.5967 13.5291" stroke="#5C83F5" stroke-width="2" stroke-miterlimit="10"/>
<path d="M3.3717 25.9959V12.1126C3.3717 10.1292 4.2217 9.4209 6.20504 9.4209H7.6217C9.60504 9.4209 10.455 10.1292 10.455 12.1126V25.9959C10.455 27.9792 9.60504 28.6876 7.6217 28.6876H6.20504C4.2217 28.6876 3.3717 27.9792 3.3717 25.9959Z" stroke="#5C83F5" stroke-width="2" stroke-linecap="round" stroke-linejoin="round"/>
</svg>
