<svg width="23" height="23" viewBox="0 0 23 23" fill="none" xmlns="http://www.w3.org/2000/svg">
<path fill-rule="evenodd" clip-rule="evenodd" d="M11.5 0C5.14855 0 0 5.14855 0 11.5C0 17.8514 5.14855 23 11.5 23C17.8509 23 23 17.8514 23 11.5C23 5.14855 17.8509 0 11.5 0ZM8.77163 16.3593H6.72462V9.77385H8.77163V16.3593ZM7.7487 8.8734C7.09263 8.8734 6.56191 8.34153 6.56191 7.6866C6.56191 7.03225 7.09263 6.50037 7.7487 6.50037C8.40305 6.50037 8.93492 7.03225 8.93492 7.6866C8.93492 8.34153 8.40305 8.8734 7.7487 8.8734ZM16.4381 16.3593H14.3928V13.1566C14.3928 12.393 14.379 11.4109 13.3291 11.4109C12.2642 11.4109 12.1009 12.2429 12.1009 13.1014V16.3593H10.0556V9.77385H12.0187V10.6737H12.0463C12.3194 10.1557 12.9869 9.60998 13.9828 9.60998C16.0557 9.60998 16.4381 10.9739 16.4381 12.7472V16.3593Z" fill="url(#paint0_linear_51_811)"/>
<defs>
<linearGradient id="paint0_linear_51_811" x1="11.5" y1="0" x2="11.5" y2="23" gradientUnits="userSpaceOnUse">
<stop stop-color="#DDE4FF"/>
<stop offset="1" stop-color="#FFF3E8"/>
</linearGradient>
</defs>
</svg>
