<svg width="145" height="62" viewBox="0 0 145 62" fill="none" xmlns="http://www.w3.org/2000/svg">
<path d="M75.3538 20.9476V25.0487H81.7218V28.1812H75.3538V33.1684H81.9691V36.3009H71.7473V17.8254H81.9691V20.9579H75.3538V20.9476Z" fill="white"/>
<path d="M98.7855 22.7715C98.0333 22.0296 97.3017 21.504 96.6113 21.1743C95.9209 20.8549 95.1378 20.69 94.2723 20.69C93.4273 20.69 92.6236 20.8549 91.892 21.1846C91.1501 21.5143 90.5112 21.9677 89.9857 22.5448C89.4499 23.1218 89.0274 23.7916 88.708 24.585C88.3988 25.3681 88.234 26.2131 88.234 27.1198C88.234 28.0266 88.3885 28.8613 88.708 29.6238C89.0171 30.3863 89.4499 31.056 89.996 31.6228C90.5421 32.1895 91.1913 32.6223 91.9332 32.9417C92.6854 33.2508 93.4891 33.4157 94.3547 33.4157C95.2202 33.4157 95.9931 33.2611 96.6628 32.9623C97.3326 32.6532 98.0436 32.138 98.7855 31.3961V35.6311C97.9509 36.0227 97.1883 36.3009 96.4877 36.4658C95.787 36.6306 95.0451 36.7131 94.2723 36.7131C92.9018 36.7131 91.6344 36.4658 90.4494 35.9609C89.2644 35.4663 88.234 34.7862 87.3581 33.9206C86.4823 33.0654 85.7919 32.0556 85.2767 30.8912C84.7718 29.7268 84.5142 28.48 84.5142 27.1508C84.5142 25.8009 84.7718 24.5335 85.2767 23.3588C85.7816 22.1738 86.4823 21.1434 87.3684 20.2572C88.2546 19.3711 89.285 18.6704 90.47 18.1655C91.655 17.6606 92.9121 17.403 94.2619 17.403C95.0966 17.403 95.8488 17.4957 96.5289 17.6709C97.209 17.846 97.9612 18.1346 98.7752 18.5467V22.7715H98.7855Z" fill="white"/>
<path d="M111.109 17.403C112.49 17.403 113.778 17.6503 114.973 18.1552C116.169 18.6498 117.199 19.3402 118.085 20.2057C118.971 21.0713 119.672 22.1017 120.177 23.2764C120.682 24.4613 120.94 25.7185 120.94 27.0683C120.94 28.4388 120.682 29.7062 120.177 30.8809C119.672 32.0556 118.971 33.0757 118.075 33.9412C117.179 34.8068 116.117 35.4869 114.901 35.9815C113.685 36.4658 112.366 36.7131 110.965 36.7131C109.584 36.7131 108.296 36.4658 107.101 35.9609C105.906 35.4663 104.875 34.7759 103.999 33.9C103.124 33.0242 102.433 31.9937 101.939 30.7984C101.444 29.6031 101.186 28.3151 101.186 26.9344C101.186 25.6257 101.444 24.3892 101.959 23.2248C102.474 22.0605 103.185 21.0507 104.082 20.1954C104.978 19.3402 106.029 18.6601 107.235 18.1552C108.451 17.6503 109.739 17.403 111.109 17.403ZM111.048 20.7003C110.213 20.7003 109.43 20.8652 108.678 21.1949C107.925 21.5246 107.276 21.978 106.709 22.5551C106.143 23.1321 105.7 23.8019 105.38 24.5644C105.061 25.3269 104.896 26.1409 104.896 26.9859C104.896 27.872 105.061 28.7067 105.38 29.4898C105.7 30.2729 106.143 30.953 106.699 31.5404C107.256 32.1174 107.905 32.5811 108.647 32.9108C109.399 33.2405 110.203 33.4054 111.068 33.4054C111.913 33.4054 112.717 33.2405 113.469 32.9108C114.221 32.5811 114.87 32.1174 115.427 31.5404C115.983 30.9633 116.416 30.2832 116.746 29.5207C117.065 28.7582 117.23 27.9236 117.23 27.0374C117.23 26.1512 117.065 25.3269 116.746 24.5541C116.426 23.7916 115.983 23.1218 115.427 22.5448C114.87 21.9677 114.221 21.5246 113.459 21.1846C112.707 20.8652 111.903 20.7003 111.048 20.7003Z" fill="white"/>
<path d="M126.7 17.4854H129.162L134.201 29.5619L139.436 17.4854H141.929L145 36.2906H141.373L139.714 24.9044L134.644 36.5379H133.645L128.74 24.9044L126.885 36.2906H123.258L126.7 17.4854Z" fill="white"/>
<path d="M74.0141 40.7317C73.9111 40.6184 73.8081 40.5256 73.705 40.4741C73.602 40.4226 73.4886 40.402 73.3547 40.402C73.1898 40.402 73.0558 40.4432 72.9425 40.5359C72.8292 40.6287 72.7776 40.7317 72.7776 40.8554C72.7776 40.9172 72.7879 40.9584 72.8085 41.0099C72.8292 41.0511 72.8601 41.0924 72.9116 41.1336C72.9631 41.1748 73.0249 41.216 73.0971 41.2469C73.1795 41.2881 73.2722 41.3294 73.3959 41.3706C73.5092 41.4118 73.6123 41.453 73.6947 41.4839C73.7771 41.5148 73.8493 41.5457 73.9111 41.5767C73.9729 41.6076 74.0244 41.6385 74.076 41.6694C74.1275 41.7003 74.1687 41.7415 74.2202 41.7827C74.4572 41.9888 74.5809 42.2773 74.5809 42.638C74.5809 42.8338 74.55 43.0193 74.4778 43.1841C74.4057 43.349 74.313 43.4932 74.1893 43.6066C74.0657 43.7302 73.9111 43.8127 73.7462 43.8848C73.5711 43.9466 73.3753 43.9878 73.1692 43.9878C72.8704 43.9878 72.6128 43.926 72.3861 43.8024C72.1594 43.6787 71.9533 43.4829 71.7678 43.215L72.283 42.7204C72.3758 42.8956 72.4994 43.0296 72.6437 43.1223C72.7879 43.215 72.9528 43.2665 73.1383 43.2665C73.3238 43.2665 73.468 43.215 73.5917 43.112C73.705 43.0089 73.7668 42.8647 73.7668 42.6998C73.7668 42.5246 73.6844 42.3804 73.5298 42.2773C73.4886 42.2567 73.4268 42.2258 73.3444 42.1846C73.2619 42.1434 73.1383 42.1022 72.9837 42.0404C72.7982 41.9785 72.6437 41.9064 72.52 41.8343C72.3964 41.7621 72.283 41.6797 72.2109 41.5973C72.1285 41.5045 72.0769 41.4118 72.0357 41.3087C72.0048 41.2057 71.9842 41.082 71.9842 40.9481C71.9842 40.7729 72.0151 40.6184 72.0769 40.4741C72.1388 40.3298 72.2315 40.2062 72.3449 40.0929C72.4582 39.9898 72.5922 39.9074 72.7467 39.8455C72.9013 39.7837 73.0662 39.7528 73.2516 39.7528C73.705 39.7528 74.1069 39.9074 74.4469 40.2062L74.0141 40.7317Z" fill="white"/>
<path d="M82.8759 41.3809V39.8043H83.6693V43.8848H82.8759V42.0712H81.1447V43.8848H80.3513V39.8043H81.1447V41.3809H82.8759Z" fill="white"/>
<path d="M90.4907 43.8848H89.6973V39.8043H90.4907V43.8848Z" fill="white"/>
<path d="M97.3017 43.8848H96.5083V39.8043H97.7036C97.8375 39.8043 97.9612 39.8146 98.0642 39.8249C98.1673 39.8352 98.26 39.8558 98.3528 39.8765C98.4352 39.8971 98.5176 39.928 98.5898 39.9692C98.6619 40.0104 98.7237 40.0516 98.7958 40.1134C98.9298 40.2268 99.0328 40.3814 99.105 40.5462C99.1771 40.7214 99.2183 40.8966 99.2183 41.0923C99.2183 41.2675 99.1874 41.4427 99.1359 41.5973C99.0741 41.7518 99.0019 41.8858 98.8886 42.0094C98.7752 42.1331 98.631 42.2258 98.4558 42.2773C98.2909 42.3392 98.0848 42.3701 97.8375 42.3701H97.3223V43.8848H97.3017ZM97.6315 41.6797C98.1261 41.6797 98.3734 41.4839 98.3734 41.0923C98.3734 40.9893 98.3528 40.9069 98.3218 40.8244C98.2806 40.742 98.2291 40.6699 98.1673 40.6287C98.1055 40.5874 98.0333 40.5462 97.9406 40.5256C97.8479 40.505 97.7242 40.4947 97.5799 40.4947H97.3017V41.6797H97.6315Z" fill="white"/>
<path d="M106.864 40.7317C106.761 40.6184 106.658 40.5256 106.555 40.4741C106.452 40.4226 106.339 40.402 106.205 40.402C106.04 40.402 105.906 40.4432 105.792 40.5359C105.679 40.6287 105.628 40.7317 105.628 40.8554C105.628 40.9172 105.638 40.9584 105.659 41.0099C105.679 41.0511 105.71 41.0924 105.762 41.1336C105.813 41.1748 105.875 41.216 105.947 41.2469C106.029 41.2881 106.122 41.3294 106.246 41.3706C106.359 41.4118 106.462 41.453 106.545 41.4839C106.627 41.5148 106.699 41.5457 106.761 41.5767C106.823 41.6076 106.874 41.6385 106.926 41.6694C106.977 41.7003 107.019 41.7415 107.07 41.7827C107.307 41.9888 107.431 42.2773 107.431 42.638C107.431 42.8338 107.4 43.0193 107.328 43.1841C107.256 43.349 107.163 43.4932 107.039 43.6066C106.916 43.7302 106.761 43.8127 106.596 43.8848C106.421 43.9466 106.225 43.9878 106.019 43.9878C105.72 43.9878 105.463 43.926 105.236 43.8024C105.009 43.6787 104.803 43.4829 104.618 43.215L105.133 42.7204C105.226 42.8956 105.349 43.0296 105.494 43.1223C105.638 43.215 105.803 43.2665 105.988 43.2665C106.174 43.2665 106.318 43.215 106.442 43.112C106.555 43.0089 106.617 42.8647 106.617 42.6998C106.617 42.5246 106.534 42.3804 106.38 42.2773C106.339 42.2567 106.277 42.2258 106.194 42.1846C106.112 42.1434 105.988 42.1022 105.834 42.0404C105.648 41.9785 105.494 41.9064 105.37 41.8343C105.246 41.7621 105.133 41.6797 105.061 41.5973C104.978 41.5045 104.927 41.4118 104.886 41.3087C104.855 41.2057 104.834 41.082 104.834 40.9481C104.834 40.7729 104.865 40.6184 104.927 40.4741C104.989 40.3298 105.081 40.2062 105.195 40.0929C105.308 39.9898 105.442 39.9074 105.597 39.8455C105.751 39.7837 105.916 39.7528 106.102 39.7528C106.555 39.7528 106.957 39.9074 107.297 40.2062L106.864 40.7317Z" fill="white"/>
<path d="M116.674 44.0394L116.334 43.6684C116.159 43.7715 115.973 43.8539 115.798 43.9054C115.623 43.9569 115.427 43.9775 115.2 43.9775C114.881 43.9775 114.592 43.926 114.324 43.8127C114.056 43.7096 113.819 43.5551 113.624 43.3593C113.428 43.1635 113.263 42.9368 113.16 42.6792C113.047 42.4216 112.995 42.1434 112.995 41.8343C112.995 41.5355 113.047 41.2572 113.16 40.9996C113.273 40.742 113.428 40.5153 113.624 40.3195C113.819 40.1238 114.056 39.9795 114.324 39.8662C114.592 39.7528 114.881 39.7013 115.19 39.7013C115.499 39.7013 115.788 39.7528 116.055 39.8662C116.323 39.9795 116.55 40.1238 116.746 40.3195C116.942 40.5153 117.096 40.742 117.21 40.9996C117.323 41.2572 117.374 41.5458 117.374 41.8446C117.374 42.1228 117.333 42.3804 117.24 42.6071C117.148 42.8338 117.003 43.0708 116.797 43.2975L117.457 43.9569L116.674 44.0394ZM116.251 42.6998C116.365 42.5762 116.447 42.4525 116.488 42.3186C116.54 42.1846 116.56 42.0301 116.56 41.8446C116.56 41.6488 116.529 41.4633 116.457 41.2984C116.385 41.1233 116.292 40.979 116.159 40.8554C116.035 40.7317 115.891 40.6287 115.726 40.5565C115.561 40.4844 115.375 40.4432 115.19 40.4432C114.994 40.4432 114.809 40.4741 114.644 40.5462C114.479 40.6184 114.335 40.7214 114.211 40.8451C114.087 40.9687 113.995 41.1233 113.922 41.2984C113.85 41.4736 113.819 41.6591 113.819 41.8549C113.819 42.0507 113.85 42.2361 113.922 42.401C113.995 42.5659 114.087 42.7204 114.211 42.8441C114.335 42.9677 114.479 43.0708 114.644 43.1429C114.809 43.215 114.984 43.2459 115.18 43.2459C115.303 43.2459 115.406 43.2356 115.499 43.2047C115.592 43.1841 115.674 43.1326 115.767 43.0811L114.974 42.3083L115.798 42.2361L116.251 42.6998Z" fill="white"/>
<path d="M123.959 42.1331C123.959 42.2362 123.959 42.3289 123.969 42.401C123.969 42.4732 123.979 42.535 123.99 42.5865C124 42.638 124.01 42.6896 124.031 42.7308C124.051 42.772 124.072 42.8132 124.093 42.8647C124.165 42.9781 124.258 43.0811 124.392 43.1429C124.515 43.2151 124.659 43.246 124.814 43.246C124.969 43.246 125.113 43.2151 125.236 43.1429C125.36 43.0708 125.463 42.9781 125.535 42.8647C125.556 42.8235 125.576 42.772 125.597 42.7308C125.618 42.6896 125.628 42.638 125.638 42.5865C125.649 42.535 125.649 42.4732 125.659 42.401C125.659 42.3289 125.669 42.2362 125.669 42.1331V39.7941H126.463V42.2877C126.463 42.5247 126.442 42.7308 126.391 42.9059C126.339 43.0811 126.267 43.2357 126.164 43.3696C126.02 43.5551 125.834 43.6994 125.597 43.8024C125.36 43.9055 125.103 43.957 124.824 43.957C124.546 43.957 124.288 43.9055 124.051 43.8024C123.814 43.6994 123.629 43.5551 123.485 43.3696C123.382 43.2357 123.299 43.0708 123.258 42.9059C123.207 42.7308 123.186 42.5247 123.186 42.2877V39.7941H123.979V42.1331H123.959Z" fill="white"/>
<path d="M133.212 43.0192L132.841 43.8848H131.996L133.768 39.7115H134.366L136.077 43.8848H135.221L134.871 43.0192H133.212ZM134.057 40.9068L133.459 42.3803H134.624L134.057 40.9068Z" fill="white"/>
<path d="M141.651 39.7941H142.816C143.413 39.7941 143.897 39.9486 144.279 40.2681C144.516 40.4535 144.691 40.6905 144.815 40.9584C144.938 41.2367 145 41.5252 145 41.8343C145 42.1434 144.938 42.4319 144.804 42.6999C144.67 42.9781 144.495 43.2048 144.258 43.4005C144.062 43.5654 143.846 43.6891 143.619 43.7612C143.382 43.8333 143.114 43.8745 142.805 43.8745H141.641V39.7941H141.651ZM142.661 43.1945C142.919 43.1945 143.135 43.1739 143.3 43.1223C143.475 43.0708 143.619 42.9884 143.743 42.875C143.877 42.7514 143.99 42.5968 144.062 42.4113C144.145 42.2259 144.176 42.0404 144.176 41.8446C144.176 41.6488 144.134 41.4634 144.062 41.2779C143.98 41.1027 143.877 40.9481 143.743 40.8245C143.609 40.7111 143.465 40.6184 143.29 40.5669C143.125 40.5154 142.908 40.4948 142.651 40.4948H142.434V43.1945H142.661Z" fill="white"/>
<path d="M59.5761 34.0266C59.3306 33.5782 59.053 33.1404 58.7434 32.7134L48.056 17.9475L30.9947 31.6137L30.4288 32.0728V47.5539C29.4039 48.2586 28.176 48.9846 26.7133 49.732C24.9624 50.6288 22.9017 51.4082 20.7237 51.9314C15.9726 53.0951 10.6342 53.1379 6.65184 50.9812C5.2532 50.2231 4.30297 49.1875 3.6944 48.013C1.7726 44.2976 3.28869 39.2261 4.98628 37.4645C1.56974 39.6532 -1.47311 44.81 0.768992 50.3619C1.48433 52.1342 2.7335 53.9493 4.67666 55.7109C12.7269 63.0138 28.475 62.3518 37.0483 59.341C46.5399 56.0205 55.8713 48.3333 60.0139 40.6888C61.1883 38.5108 60.7826 36.2046 59.5761 34.0266ZM36.1942 34.9128C34.518 36.258 34.582 38.5321 34.518 41.5003C34.486 42.963 33.9414 44.2869 32.7136 45.6001C32.2438 46.1126 31.6673 46.6144 30.9733 47.1376V32.3397L47.7571 18.9084V25.6561C44.6929 28.1117 37.5074 33.8664 36.1942 34.9128ZM46.1556 29.3182V31.6991L44.5754 33.087V30.578L46.1556 29.3182ZM38.8847 38.1691L38.0947 38.7991L37.3046 39.429V36.4929L38.8847 35.2331V38.1691ZM41.3083 35.9697L41.0948 36.1513L40.1126 37.0161L39.7282 37.3577V34.5177L41.3083 33.2579V35.9697ZM42.1518 32.5532L43.732 31.2934V33.8344L42.1518 35.2224V32.5532ZM50.0098 25.0155C49.9885 25.891 49.9992 26.7985 49.9992 27.6953C49.9992 28.763 49.9885 29.8413 49.9565 30.909C49.8817 33.055 49.7002 35.2117 49.2945 37.3364C49.0917 38.3934 48.8247 39.4503 48.4831 40.4753C48.1414 41.5003 47.725 42.5039 47.2126 43.4541C46.7001 44.4043 46.1022 45.3012 45.4189 46.1233C44.7356 46.9454 43.9562 47.6821 43.102 48.3333C43.9028 47.6287 44.6288 46.8493 45.248 45.9951C45.8673 45.141 46.4011 44.2228 46.8282 43.2619C47.693 41.3401 48.1841 39.2795 48.451 37.2082C48.7073 35.1263 48.75 33.023 48.6753 30.9197C48.6432 29.8627 48.5792 28.8164 48.5044 27.7594C48.451 26.9159 48.387 26.0725 48.3443 25.2077V19.3248L55.3268 28.9765C53.4371 27.2683 51.4405 25.8803 50.0098 25.0155Z" fill="url(#paint0_linear_75_185)"/>
<path d="M15.5562 38.5215L51.2697 9.91864C49.5615 7.81533 47.5329 5.97894 45.2694 4.47353C41.0094 1.64421 35.906 0 30.4075 0C15.5669 0 3.5343 12.0326 3.5343 26.8732C3.5343 30.2577 4.16423 33.4927 5.30663 36.4822C5.56288 37.1442 5.84046 37.8061 6.15009 38.4467C6.29956 38.767 6.45971 39.0873 6.63054 39.4076C7.39926 40.8597 8.29611 42.2476 9.31039 43.5288C11.3923 46.166 13.9441 48.3974 16.8588 50.095C17.9265 49.9775 19.0155 49.7854 20.1152 49.5078C22.0583 49.0273 23.9374 48.344 25.5496 47.5112C26.7881 46.8706 27.8451 46.2621 28.7099 45.6855C24.3111 45.2905 20.222 43.39 17.0617 40.2297C16.5278 39.6745 16.0153 39.1087 15.5562 38.5215ZM11.5311 26.8732C11.5311 21.8338 13.4956 17.0934 17.0617 13.5274C20.6277 9.96134 25.3681 7.99684 30.4075 7.99684C33.2795 7.99684 36.0555 8.63744 38.5645 9.8439L12.0116 31.1118C11.702 29.7346 11.5311 28.3146 11.5311 26.8732Z" fill="url(#paint1_linear_75_185)"/>
<defs>
<linearGradient id="paint0_linear_75_185" x1="-4.4459" y1="37.1874" x2="115.953" y2="44.8873" gradientUnits="userSpaceOnUse">
<stop stop-color="#F7941D"/>
<stop offset="0.00569839" stop-color="#F68D23"/>
<stop offset="0.0455199" stop-color="#F26445"/>
<stop offset="0.0768745" stop-color="#EF4A5B"/>
<stop offset="0.0956875" stop-color="#EE4163"/>
<stop offset="0.1262" stop-color="#E13E74"/>
<stop offset="0.2077" stop-color="#C2379B"/>
<stop offset="0.2882" stop-color="#A932BA"/>
<stop offset="0.3663" stop-color="#982ED0"/>
<stop offset="0.441" stop-color="#8E2CDD"/>
<stop offset="0.5086" stop-color="#8A2BE2"/>
</linearGradient>
<linearGradient id="paint1_linear_75_185" x1="-6.03314" y1="4.42613" x2="86.8906" y2="61.6504" gradientUnits="userSpaceOnUse">
<stop offset="0.0808436" stop-color="#F7941D"/>
<stop offset="0.0946146" stop-color="#F68D23"/>
<stop offset="0.1908" stop-color="#F26445"/>
<stop offset="0.2666" stop-color="#EF4A5B"/>
<stop offset="0.3121" stop-color="#EE4163"/>
<stop offset="0.3615" stop-color="#D73C80"/>
<stop offset="0.442" stop-color="#B635AA"/>
<stop offset="0.5148" stop-color="#9E2FC9"/>
<stop offset="0.5768" stop-color="#8F2CDB"/>
<stop offset="0.6206" stop-color="#8A2BE2"/>
</linearGradient>
</defs>
</svg>
