<svg width="34" height="34" viewBox="0 0 34 34" fill="none" xmlns="http://www.w3.org/2000/svg">
<path d="M12.9766 15.3991C12.835 15.3849 12.665 15.3849 12.5091 15.3991C9.13746 15.2858 6.45996 12.5233 6.45996 9.12325C6.45996 5.65242 9.26496 2.83325 12.75 2.83325C16.2208 2.83325 19.04 5.65242 19.04 9.12325C19.0258 12.5233 16.3483 15.2858 12.9766 15.3991Z" stroke="#D0335A" stroke-width="2" stroke-linecap="round" stroke-linejoin="round"/>
<path opacity="0.4" d="M23.2475 5.66675C25.9959 5.66675 28.2059 7.89091 28.2059 10.6251C28.2059 13.3026 26.0809 15.4842 23.4317 15.5834C23.3184 15.5692 23.1909 15.5692 23.0634 15.5834" stroke="#D0335A" stroke-width="2" stroke-linecap="round" stroke-linejoin="round"/>
<path d="M5.89339 20.6267C2.46506 22.9217 2.46506 26.6617 5.89339 28.9426C9.78923 31.5492 16.1784 31.5492 20.0742 28.9426C23.5026 26.6476 23.5026 22.9076 20.0742 20.6267C16.1926 18.0342 9.80339 18.0342 5.89339 20.6267Z" stroke="#D0335A" stroke-width="2" stroke-linecap="round" stroke-linejoin="round"/>
<path opacity="0.4" d="M25.9817 28.3333C27.0017 28.1208 27.965 27.7099 28.7584 27.1008C30.9684 25.4433 30.9684 22.7091 28.7584 21.0516C27.9792 20.4566 27.03 20.0599 26.0242 19.8333" stroke="#D0335A" stroke-width="2" stroke-linecap="round" stroke-linejoin="round"/>
</svg>
