<svg width="22" height="23" viewBox="0 0 22 23" fill="none" xmlns="http://www.w3.org/2000/svg">
<path fill-rule="evenodd" clip-rule="evenodd" d="M11 0C4.9247 0 0 5.14855 0 11.5C0 17.8514 4.9247 23 11 23C17.0747 23 22 17.8514 22 11.5C22 5.14855 17.0747 0 11 0ZM16.1397 8.7446C16.1452 8.86363 16.1474 8.98322 16.1474 9.10283C16.1474 12.7662 13.48 16.9907 8.60255 16.9907C7.1049 16.9907 5.7112 16.5318 4.5375 15.7452C4.74485 15.7711 4.95605 15.7838 5.17 15.7838C6.41245 15.7838 7.5559 15.3404 8.4634 14.5969C7.30235 14.5745 6.3239 13.773 5.9862 12.6713C6.1479 12.7035 6.314 12.7213 6.4845 12.7213C6.7265 12.7213 6.9608 12.6874 7.18355 12.6236C5.97025 12.3694 5.05615 11.2487 5.05615 9.90553C5.05615 9.89345 5.05615 9.88195 5.0567 9.87045C5.4142 10.078 5.82285 10.2034 6.2579 10.2172C5.5462 9.72038 5.0776 8.8711 5.0776 7.9097C5.0776 7.40197 5.20905 6.92588 5.43675 6.51648C6.74465 8.19375 8.6988 9.29718 10.9026 9.41275C10.857 9.20978 10.8339 8.99818 10.8339 8.78083C10.8339 7.25018 12.0213 6.00875 13.486 6.00875C14.2488 6.00875 14.938 6.3457 15.4215 6.88448C16.0254 6.76028 16.5929 6.52913 17.105 6.21173C16.907 6.85918 16.4863 7.40198 15.939 7.74525C16.4753 7.67798 16.9867 7.52962 17.462 7.30882C17.1072 7.86485 16.6573 8.35303 16.1397 8.7446Z" fill="url(#paint0_linear_51_810)"/>
<defs>
<linearGradient id="paint0_linear_51_810" x1="11" y1="0" x2="11" y2="23" gradientUnits="userSpaceOnUse">
<stop stop-color="#DDE4FF"/>
<stop offset="1" stop-color="#FFF3E8"/>
</linearGradient>
</defs>
</svg>
